<svg xmlns="http://www.w3.org/2000/svg" width="896" height="128" viewBox="0 0 448 64" fill="none">
  <title>Reusable Notes-style top action icons</title>
  <g stroke="#f1d49d" stroke-width="3.4" stroke-linecap="round" stroke-linejoin="round">
    <circle cx="36" cy="32" r="18" />
    <path d="M44 33a11.5 11.5 0 1 1-3.4-8.2" />
    <path d="M40.6 17.8v7h-7" />
  </g>
  <g stroke="#d8cfaa" stroke-opacity=".48" stroke-width="3.4" stroke-linecap="round" stroke-linejoin="round">
    <circle cx="154" cy="32" r="18" />
    <path d="M146 33a11.5 11.5 0 1 0 3.4-8.2" />
    <path d="M149.4 17.8v7h7" />
  </g>
  <g stroke="#f1d49d" stroke-width="3.4" stroke-linecap="round" stroke-linejoin="round">
    <path d="M286 31v15a5 5 0 0 0 5 5h26a5 5 0 0 0 5-5V31" />
    <path d="M304 13v28" />
    <path d="M292 25 304 13l12 12" />
  </g>
  <g stroke="#f1d49d" stroke-width="3.4" stroke-linecap="round" stroke-linejoin="round">
    <circle cx="420" cy="32" r="18" />
    <circle cx="412" cy="32" r="2.05" fill="#f1d49d" stroke="none" />
    <circle cx="420" cy="32" r="2.05" fill="#f1d49d" stroke="none" />
    <circle cx="428" cy="32" r="2.05" fill="#f1d49d" stroke="none" />
  </g>
</svg>
